<svg width="800px" height="800px" preserveAspectRatio="xMidYMid" version="1.1" viewBox="0 -23.5 256 256" xmlns="http://www.w3.org/2000/svg"><defs><linearGradient id="b" y1="50%" y2="50%"><stop stop-color="#2A3B8F" offset="0"/><stop stop-color="#29ABE2" offset="1"/></linearGradient><linearGradient id="a" x1="100%" x2="0%" y1="50%" y2="50%"><stop stop-color="#B4D44E" offset="0"/><stop stop-color="#E7F716" offset="1"/></linearGradient></defs><polygon points="256 104.03 228.19 150.85 189.2 103.39 228.19 57.208" fill="#166DA5"/><polygon points="225.16 158.84 182.81 108.18 157.4 150.69 196.87 208.38" fill="#8FDB69"/><polygon points="224.68 48.898 182.81 99.714 157.4 57.208 196.87 0.1598" fill="#166DA5"/><polygon points="96.997 48.898 224.68 48.898 196.55 0.1598 125.12 0.1598" fill="url(#b)" opacity=".95"/><polyline points="182.81 99.874 253.44 99.874 228.03 57.048 157.24 57.048" fill="url(#b)" opacity=".95"/><polygon points="225.16 159 96.838 159 124.96 207.74 196.87 207.74" fill="url(#a)" opacity=".95"/><polygon points="124.96 207.74 64.878 103.87 125.76 0 59.924 0 0 103.87 59.924 207.74" fill="#010101"/><polyline points="182.81 108.02 253.44 108.02 228.03 150.85 157.24 150.85" fill="url(#a)" opacity=".95"/></svg>
